HIERARCHY
ROOT Hips
{
	OFFSET 0.000000 0.000000 0.000000
	CHANNELS 6 Xposition Yposition Zposition Xrotation Yrotation Zrotation
	JOINT LeftUpLeg_virtual
	{
		OFFSET 0.000000 0.000000 0.000000
		CHANNELS 3 Xrotation Yrotation Zrotation
		JOINT LeftUpLeg
		{
			OFFSET 13.026900 -6.336304 -1.092800
			CHANNELS 3 Xrotation Yrotation Zrotation
			JOINT LeftLeg
			{
				OFFSET 0.524474 -46.096886 9.782700
				CHANNELS 3 Xrotation Yrotation Zrotation
				JOINT LeftFoot
				{
					OFFSET -0.524474 -53.427422 -12.948200
					CHANNELS 3 Xrotation Yrotation Zrotation
					JOINT LeftToeBase
					{
						OFFSET 0.192200 -14.009700 16.364100
						CHANNELS 3 Xrotation Yrotation Zrotation
						JOINT LeftToe_End
						{
							OFFSET -1.784700 -0.561700 9.474800
							CHANNELS 3 Xrotation Yrotation Zrotation
							End Site
							{
								OFFSET 0 0 0
							}
						}
					}
				}
			}
		}
	}
	JOINT RightUpLeg_virtual
	{
		OFFSET 0.000000 0.000000 0.000000
		CHANNELS 3 Xrotation Yrotation Zrotation
		JOINT RightUpLeg
		{
			OFFSET -12.883000 -6.336304 -1.092800
			CHANNELS 3 Xrotation Yrotation Zrotation
			JOINT RightLeg
			{
				OFFSET -0.524587 -46.096825 9.782800
				CHANNELS 3 Xrotation Yrotation Zrotation
				JOINT RightFoot
				{
					OFFSET 0.524587 -53.427383 -12.948300
					CHANNELS 3 Xrotation Yrotation Zrotation
					JOINT RightToeBase
					{
						OFFSET -0.192200 -14.009700 16.364100
						CHANNELS 3 Xrotation Yrotation Zrotation
						JOINT RightToe_End
						{
							OFFSET 1.784700 -0.561700 9.474800
							CHANNELS 3 Xrotation Yrotation Zrotation
							End Site
							{
								OFFSET 0 0 0
							}
						}
					}
				}
			}
		}
	}
	JOINT Spine_virtual
	{
		OFFSET 0.000000 0.000000 0.000000
		CHANNELS 3 Xrotation Yrotation Zrotation
		JOINT Spine
		{
			OFFSET 0.072000 7.257294 -0.789700
			CHANNELS 3 Xrotation Yrotation Zrotation
			JOINT Spine1
			{
				OFFSET 0.000000 12.508769 -0.658067
				CHANNELS 3 Xrotation Yrotation Zrotation
				JOINT Spine1_split
				{
					OFFSET 0.000000 12.508769 -0.658067
					CHANNELS 3 Xrotation Yrotation Zrotation
					JOINT Spine2
					{
						OFFSET 0.000000 12.508769 -0.658067
						CHANNELS 3 Xrotation Yrotation Zrotation
						JOINT Neck_virtual
						{
							OFFSET 0.000000 0.000000 0.000000
							CHANNELS 3 Xrotation Yrotation Zrotation
							JOINT Neck
							{
								OFFSET 0.000000 14.033295 7.520400
								CHANNELS 3 Xrotation Yrotation Zrotation
								JOINT Head
								{
									OFFSET 0.000000 8.198502 5.703100
									CHANNELS 3 Xrotation Yrotation Zrotation
									JOINT HeadTop_End
									{
										OFFSET 0.000000 17.760803 13.332701
										CHANNELS 3 Xrotation Yrotation Zrotation
										End Site
										{
											OFFSET 0 0 0
										}
									}
								}
							}
						}
						JOINT LeftShoulder_virtual
						{
							OFFSET 0.000000 0.000000 0.000000
							CHANNELS 3 Xrotation Yrotation Zrotation
							JOINT LeftShoulder
							{
								OFFSET 6.292450 5.785301 -0.669000
								CHANNELS 3 Xrotation Yrotation Zrotation
								JOINT LeftShoulder_split
								{
									OFFSET 6.292450 5.785301 -0.669000
									CHANNELS 3 Xrotation Yrotation Zrotation
									JOINT LeftArm
									{
										OFFSET 13.907140 -6.093903 1.965100
										CHANNELS 3 Xrotation Yrotation Zrotation
										JOINT LeftForeArm
										{
											OFFSET 34.140198 0.000000 0.000000
											CHANNELS 3 Xrotation Yrotation Zrotation
											JOINT LeftHand
											{
												OFFSET 40.960209 0.000000 0.000000
												CHANNELS 3 Xrotation Yrotation Zrotation
												End Site
												{
													OFFSET 0 0 0
												}
											}
										}
									}
								}
							}
						}
						JOINT RightShoulder_virtual
						{
							OFFSET 0.000000 0.000000 0.000000
							CHANNELS 3 Xrotation Yrotation Zrotation
							JOINT RightShoulder
							{
								OFFSET -6.292450 5.785301 -0.669000
								CHANNELS 3 Xrotation Yrotation Zrotation
								JOINT RightShoulder_split
								{
									OFFSET -6.292450 5.785301 -0.669000
									CHANNELS 3 Xrotation Yrotation Zrotation
									JOINT RightArm
									{
										OFFSET -13.907140 -6.093903 1.965100
										CHANNELS 3 Xrotation Yrotation Zrotation
										JOINT RightForeArm
										{
											OFFSET -34.140198 0.000000 0.000000
											CHANNELS 3 Xrotation Yrotation Zrotation
											JOINT RightHand
											{
												OFFSET -40.960209 0.000000 0.000000
												CHANNELS 3 Xrotation Yrotation Zrotation
												End Site
												{
													OFFSET 0 0 0
												}
											}
										}
									}
								}
							}
						}
					}
				}
			}
		}
	}
}
MOTION
Frames: 9
Frame Time: 0.03333333
5.075607 15.250763 4.343815 0.000000 0.000000 0.000000 81.721274 2.785805 -1.644472 3.989828 11.175790 16.571895 20.650204 18.069072 4.459512 30.450059 28.893080 -16.560135 -0.608829 0.893905 5.028936 0.000000 0.000000 0.000000 83.908594 -1.642610 -0.498109 -5.135764 -7.138960 -17.201987 6.799357 -3.440823 1.572002 40.880082 -21.043903 23.204641 13.669330 -1.774753 -10.529817 0.000000 0.000000 0.000000 87.089181 -1.293810 1.136141 2.719210 0.513035 -1.286602 0.676710 0.507258 0.048626 0.367614 -0.807180 0.557053 0.000000 0.000000 0.000000 -0.877969 0.331203 -0.246076 -4.617657 -12.317910 5.406080 -19.055770 -55.719969 -20.039215 0.000000 0.000000 0.000000 0.263611 0.267593 -0.361388 3.273952 -17.256029 -2.940941 -1.172369 -0.572254 -1.436286 22.725778 -20.111781 -56.623242 0.156361 -24.773709 -0.937774 0.000000 0.000000 0.000000 0.021957 0.760199 0.290172 -0.305933 11.969311 11.279705 7.858718 6.656824 -2.762222 7.026631 -10.030904 55.492367 0.508021 28.060982 1.057706 0.000000 0.000000 0.000000 
5.077435 15.244736 4.321308 0.000000 0.000000 0.000000 81.724354 2.783366 -1.646885 3.994487 11.173587 16.568330 20.676789 18.067855 4.456530 30.438960 28.901385 -16.557809 -0.614923 0.895086 5.025870 0.000000 0.000000 0.000000 83.907556 -1.639179 -0.503219 -5.137010 -7.133138 -17.191229 6.819745 -3.439741 1.568655 40.863628 -21.046553 23.204675 13.694909 -1.775441 -10.529931 0.000000 0.000000 0.000000 87.085909 -1.296026 1.142940 2.717215 0.509317 -1.285345 0.679030 0.505825 0.050627 0.355381 -0.804992 0.552166 0.000000 0.000000 0.000000 -0.872801 0.332307 -0.246337 -4.617636 -12.306701 5.399960 -19.053040 -55.706579 -20.041139 0.000000 0.000000 0.000000 0.272433 0.266129 -0.360200 3.278370 -17.273840 -2.926321 -1.175989 -0.547379 -1.440387 22.732026 -20.111550 -56.621759 0.159251 -24.742934 -0.930963 0.000000 0.000000 0.000000 0.023386 0.759346 0.292586 -0.308265 11.966634 11.271932 7.865219 6.680537 -2.767520 7.007241 -10.008498 55.479472 0.523200 28.091113 1.048327 0.000000 0.000000 0.000000 
5.078237 15.238724 4.302132 0.000000 0.000000 0.000000 81.723719 2.778328 -1.652676 3.991821 11.183148 16.577689 20.719688 18.060733 4.448448 30.431341 28.899425 -16.563601 -0.624338 0.896334 5.027110 0.000000 0.000000 0.000000 83.905937 -1.642548 -0.509550 -5.137709 -7.114556 -17.165864 6.854290 -3.431833 1.563692 40.843616 -21.041904 23.216790 13.730487 -1.780027 -10.543446 0.000000 0.000000 0.000000 87.081743 -1.300192 1.151082 2.715787 0.508554 -1.278838 0.684102 0.504383 0.052526 0.347020 -0.804657 0.548218 0.000000 0.000000 0.000000 -0.868143 0.332080 -0.245072 -4.616593 -12.289050 5.388369 -19.027439 -55.700743 -20.038691 0.000000 0.000000 0.000000 0.282000 0.264535 -0.361493 3.282388 -17.313652 -2.918994 -1.183635 -0.535441 -1.446945 22.753563 -20.114726 -56.604418 0.143611 -24.692341 -0.937745 0.000000 0.000000 0.000000 0.028879 0.758596 0.293687 -0.309576 11.967732 11.264956 7.880587 6.703549 -2.778366 6.976972 -10.014890 55.478662 0.549252 28.103252 1.035999 0.000000 0.000000 0.000000 
5.077008 15.235909 4.291519 0.000000 0.000000 0.000000 81.722503 2.773937 -1.664147 3.978553 11.204265 16.599416 20.762727 18.052024 4.437967 30.431983 28.888610 -16.576958 -0.634217 0.897333 5.032521 0.000000 0.000000 0.000000 83.906046 -1.648620 -0.519158 -5.136600 -7.087379 -17.130582 6.894298 -3.421376 1.557039 40.821391 -21.031561 23.235691 13.771284 -1.787629 -10.567244 0.000000 0.000000 0.000000 87.079687 -1.306888 1.157057 2.716645 0.510359 -1.268056 0.691324 0.503490 0.054278 0.350158 -0.813892 0.552733 0.000000 0.000000 0.000000 -0.864953 0.330673 -0.242700 -4.613598 -12.268967 5.376423 -18.984984 -55.702792 -20.032742 0.000000 0.000000 0.000000 0.290622 0.262918 -0.364947 3.286549 -17.374318 -2.916060 -1.188470 -0.531154 -1.461276 22.788732 -20.109276 -56.569758 0.116082 -24.654235 -0.955486 0.000000 0.000000 0.000000 0.036806 0.758406 0.293495 -0.310924 11.969889 11.261899 7.903758 6.725738 -2.789153 6.937390 -10.060913 55.484874 0.580338 28.085347 1.021904 0.000000 0.000000 0.000000 
5.075479 15.237625 4.287807 0.000000 0.000000 0.000000 81.722216 2.773561 -1.679285 3.955790 11.231252 16.628789 20.795143 18.046883 4.428940 30.438209 28.874054 -16.594206 -0.641298 0.897518 5.042000 0.000000 0.000000 0.000000 83.908853 -1.649939 -0.533711 -5.137582 -7.060315 -17.096180 6.932464 -3.411214 1.549493 40.804704 -21.014750 23.259671 13.816683 -1.797428 -10.596857 0.000000 0.000000 0.000000 87.082836 -1.314752 1.159394 2.721191 0.513574 -1.254704 0.700407 0.503232 0.055056 0.356746 -0.829291 0.558339 0.000000 0.000000 0.000000 -0.863432 0.328354 -0.239955 -4.610542 -12.249639 5.367994 -18.940048 -55.710216 -20.028452 0.000000 0.000000 0.000000 0.297086 0.261235 -0.369119 3.291964 -17.453107 -2.911395 -1.180214 -0.520486 -1.475058 22.828336 -20.095822 -56.521407 0.088037 -24.639784 -0.977006 0.000000 0.000000 0.000000 0.045983 0.758089 0.291096 -0.311313 11.968069 11.262210 7.921578 6.736699 -2.805931 6.894039 -10.139049 55.487661 0.611114 28.049377 1.008182 0.000000 0.000000 0.000000 
5.070810 15.241447 4.284607 0.000000 0.000000 0.000000 81.726089 2.782186 -1.696628 3.930512 11.254054 16.658288 20.809510 18.049429 4.426194 30.436491 28.864028 -16.607453 -0.643433 0.896910 5.055641 0.000000 0.000000 0.000000 83.914919 -1.643266 -0.549771 -5.149860 -7.038217 -17.073601 6.967059 -3.401055 1.541591 40.797563 -20.989866 23.288797 13.865377 -1.808617 -10.629115 0.000000 0.000000 0.000000 87.091530 -1.317295 1.154289 2.729862 0.516088 -1.241102 0.709507 0.502747 0.054069 0.364011 -0.848233 0.561592 0.000000 0.000000 0.000000 -0.862642 0.325126 -0.237807 -4.610492 -12.234797 5.364573 -18.900819 -55.722862 -20.027950 0.000000 0.000000 0.000000 0.301149 0.260081 -0.372862 3.299688 -17.547108 -2.902576 -1.155319 -0.499949 -1.485477 22.868558 -20.085075 -56.460102 0.070126 -24.650662 -0.993440 0.000000 0.000000 0.000000 0.055742 0.757074 0.286439 -0.309594 11.960265 11.267299 7.942412 6.734625 -2.828533 6.848028 -10.236712 55.478775 0.637174 28.008174 0.996416 0.000000 0.000000 0.000000 
5.062470 15.246162 4.277882 0.000000 0.000000 0.000000 81.735419 2.804384 -1.716175 3.909140 11.266537 16.678567 20.807440 18.055190 4.429929 30.420187 28.860148 -16.617075 -0.648031 0.895552 5.073179 0.000000 0.000000 0.000000 83.921455 -1.627628 -0.563379 -5.178698 -7.023727 -17.069187 7.001224 -3.388857 1.533873 40.798342 -20.957768 23.321867 13.910272 -1.819845 -10.663850 0.000000 0.000000 0.000000 87.104303 -1.308664 1.140775 2.743319 0.516598 -1.229269 0.716749 0.502472 0.051540 0.368384 -0.859353 0.563529 0.000000 0.000000 0.000000 -0.862240 0.322005 -0.237400 -4.616126 -12.225139 5.365970 -18.868524 -55.734870 -20.031032 0.000000 0.000000 0.000000 0.305362 0.259592 -0.375601 3.309718 -17.647192 -2.887503 -1.128564 -0.472752 -1.493666 22.905188 -20.090038 -56.392149 0.069921 -24.677497 -0.996460 0.000000 0.000000 0.000000 0.065474 0.756274 0.279666 -0.306710 11.951503 11.271608 7.975027 6.720873 -2.850640 6.799239 -10.335587 55.461351 0.657064 27.974749 0.986826 0.000000 0.000000 0.000000 
5.052731 15.245987 4.270756 0.000000 0.000000 0.000000 81.750862 2.839224 -1.734596 3.891219 11.265243 16.685689 20.797608 18.062440 4.437493 30.394082 28.864632 -16.627636 -0.657929 0.893533 5.091269 0.000000 0.000000 0.000000 83.928381 -1.601210 -0.574506 -5.224110 -7.018131 -17.084475 7.042342 -3.373983 1.528044 40.801395 -20.924329 23.356093 13.949468 -1.830444 -10.700574 0.000000 0.000000 0.000000 87.119684 -1.283831 1.119499 2.760875 0.514500 -1.219674 0.722719 0.503489 0.047725 0.363634 -0.860821 0.557614 0.000000 0.000000 0.000000 -0.863077 0.320050 -0.239542 -4.629732 -12.221229 5.368229 -18.842752 -55.744063 -20.035578 0.000000 0.000000 0.000000 0.312035 0.259849 -0.377662 3.321198 -17.749835 -2.869326 -1.099762 -0.448566 -1.496515 22.929268 -20.120969 -56.331804 0.086464 -24.696618 -0.982419 0.000000 0.000000 0.000000 0.076029 0.756889 0.271559 -0.302455 11.952095 11.274606 8.015394 6.695778 -2.875647 6.752108 -10.418070 55.445481 0.671278 27.944993 0.980633 0.000000 0.000000 0.000000 
5.045975 15.239265 4.263870 0.000000 0.000000 0.000000 81.770485 2.884563 -1.753793 3.872462 11.254118 16.681866 20.791538 18.074974 4.443735 30.365901 28.881253 -16.638261 -0.669341 0.892313 5.103762 0.000000 0.000000 0.000000 83.933306 -1.565408 -0.586436 -5.278377 -7.017589 -17.114958 7.097600 -3.360765 1.525223 40.795487 -20.901757 23.383376 13.994233 -1.841085 -10.737400 0.000000 0.000000 0.000000 87.134362 -1.247966 1.095831 2.781316 0.509371 -1.213323 0.725797 0.505863 0.043010 0.353413 -0.849667 0.556736 0.000000 0.000000 0.000000 -0.862926 0.320163 -0.244445 -4.646437 -12.224050 5.367788 -18.818030 -55.751853 -20.040823 0.000000 0.000000 0.000000 0.324601 0.260269 -0.380027 3.332855 -17.851610 -2.856742 -1.072465 -0.437858 -1.491589 22.929316 -20.157376 -56.298476 0.111366 -24.694604 -0.954674 0.000000 0.000000 0.000000 0.085953 0.760490 0.264591 -0.299106 11.967656 11.274896 8.077724 6.689522 -2.888858 6.699541 -10.485245 55.433088 0.672150 27.897955 0.979502 0.000000 0.000000 0.000000 
